<svg id="Camada_1" data-name="Camada 1" xmlns="http://www.w3.org/2000/svg" viewBox="0 0 132 41"><defs><clipPath id="clippath"><path class="cls-7" d="M41 24.3 20.5 41V7.7L41 24.3z"/></clipPath><clipPath id="clippath-1"><path class="cls-7" d="M0 24.3 20.5 41V7.7L0 24.3z"/></clipPath><style>.cls-7{fill:none}</style></defs><path d="M20.5 20.5H5.1V0l15.4 7.7v12.8Z" style="fill:#eb4310"/><path d="M20.5 20.5h15.4V0L20.5 7.7v12.8Z" style="fill:#fd6818"/><path d="M0 24.3 20.5 41V7.7L0 24.3Z" style="fill:#fe6718"/><path d="M41 24.3 20.5 41V7.7L41 24.3Z" style="fill:#ff8d05"/><g style="clip-path:url(#clippath)"><path d="M41 20.5 20.5 33.9V41L41 24.3v-3.8Z" style="fill:#fac802"/></g><g style="clip-path:url(#clippath-1)"><path d="m0 20.5 20.5 13.4V41L0 24.3v-3.8Z" style="fill:#fd9307"/></g><path d="M54.6 20.6h-6.2v5.5h5.7v1.7h-5.7v7h-1.9V18.9h8.1v1.7Zm3.5-.1c-.3 0-.6-.1-.8-.3s-.3-.5-.3-.8.1-.6.3-.8.5-.3.8-.3.6.1.8.3.3.5.3.8-.1.6-.3.8-.4.3-.8.3Zm.9 11.1c0 1 .4 1.6 1.2 1.6.3 0 .6 0 .9-.1v1.6c-.1 0-.3.1-.6.1h-.7c-.4 0-.7-.1-1-.2s-.6-.3-.8-.5-.4-.5-.6-.9c-.1-.4-.2-.8-.2-1.3v-8.5H59v8.2Zm13.5 3.2h-1.8v-6.5c0-2.4-.9-3.6-2.6-3.6-.9 0-1.7.3-2.3 1-.6.7-.9 1.5-.9 2.6v6.5h-1.8V23.4h1.8v1.9c.9-1.4 2.1-2.1 3.7-2.1 1.2 0 2.2.4 2.8 1.2s1 2 1 3.5v6.9h.1Zm3.7 0V18.9h4.4c5.6 0 8.4 2.6 8.4 7.7 0 2.5-.8 4.4-2.3 5.9-1.6 1.5-3.6 2.2-6.2 2.2h-4.3v.1ZM78 20.6v12.5h2.4c2.1 0 3.7-.6 4.9-1.7s1.7-2.7 1.7-4.7c0-4.1-2.2-6.1-6.5-6.1H78Zm21.9 14.2h-1.8V33c-.8 1.4-2 2-3.5 2a4.01 4.01 0 0 1-2.7-.9c-.6-.6-1-1.4-1-2.4 0-2.1 1.2-3.4 3.7-3.7l3.4-.5c0-1.9-.8-2.9-2.3-2.9-1.4 0-2.6.5-3.7 1.4v-1.9c1.1-.7 2.4-1.1 3.9-1.1 2.7 0 4 1.4 4 4.2v7.6ZM98.1 29l-2.7.4c-.8.1-1.5.3-1.9.6-.4.3-.6.8-.6 1.6 0 .6.2 1 .6 1.4s.9.5 1.6.5c.9 0 1.6-.3 2.2-.9s.9-1.4.9-2.4l-.1-1.2Zm4.6 5.4v-1.9c1 .7 2.1 1.1 3.3 1.1 1.6 0 2.4-.5 2.4-1.6 0-.3-.1-.6-.2-.8-.1-.2-.3-.4-.6-.6-.2-.2-.5-.3-.8-.4s-.7-.3-1-.4c-.5-.2-.9-.4-1.3-.6s-.7-.4-1-.7c-.3-.3-.4-.5-.6-.9-.1-.3-.2-.7-.2-1.1 0-.5.1-1 .4-1.4.2-.4.6-.8 1-1s.9-.5 1.4-.6 1.1-.2 1.6-.2c1 0 1.9.2 2.6.5v1.8c-.8-.5-1.8-.8-2.9-.8-.3 0-.6 0-.9.1s-.5.2-.7.3c-.2.1-.3.3-.5.5-.1.2-.2.4-.2.6 0 .3.1.5.2.7s.3.4.5.5c.2.2.5.3.8.4s.6.3 1 .4c.5.2 1 .4 1.4.6s.7.4 1 .7.5.5.6.9.2.7.2 1.2c0 .6-.1 1-.4 1.5-.2.4-.6.8-1 1-.4.3-.9.5-1.4.6s-1.1.2-1.7.2c-1.1 0-2.2-.2-3-.6Zm19.7.4h-1.8v-6.5c0-2.4-.9-3.5-2.6-3.5-.9 0-1.6.3-2.2 1s-.9 1.6-.9 2.6v6.4H113V18h1.8v7.3c.9-1.4 2.1-2.1 3.7-2.1 2.6 0 3.8 1.5 3.8 4.6l.1 7ZM53.53 17.02h-7.12v-.91l5.45-7.05h-4.98v-.99h6.36v.88l-5.45 7.07h5.75v.99ZM54.8 8.69V7.6h1.14v1.09H54.8Zm0 8.33v-6.87h1.14v6.87H54.8ZM57.69 17.02V7.6h1.14v9.42h-1.14ZM60.58 17.02V7.6h1.14v9.42h-1.14ZM65.22 17.14c-.69 0-1.21-.18-1.56-.55a2.06 2.06 0 0 1-.52-1.5c0-.71.23-1.26.7-1.64s1.22-.58 2.26-.61l1.54-.03v-.37c0-.56-.12-.96-.36-1.2s-.61-.36-1.12-.36-.88.09-1.12.26c-.23.17-.37.45-.42.83l-1.19-.11c.19-1.24 1.11-1.85 2.75-1.85.86 0 1.51.2 1.95.59.44.4.65.97.65 1.72v2.96c0 .34.04.59.13.76.09.17.26.26.51.26.11 0 .23-.01.38-.04v.71c-.29.07-.58.1-.88.1-.42 0-.73-.11-.92-.33-.19-.22-.3-.57-.33-1.04h-.04c-.29.52-.63.9-1.02 1.11-.39.22-.86.33-1.41.33Zm.26-.86c.42 0 .79-.1 1.12-.29.33-.19.58-.45.77-.78.19-.33.28-.67.28-1.02v-.56l-1.25.03c-.54 0-.94.06-1.22.17s-.49.26-.64.47a1.4 1.4 0 0 0-.22.83c0 .37.1.66.3.86s.49.3.86.3Z"/></svg>