<svg xmlns="http://www.w3.org/2000/svg" xmlns:xlink="http://www.w3.org/1999/xlink" xml:space="preserve" viewBox="0 0 132 41"><path fill="#eb4310" d="M20.5 20.5H5.1V0l15.4 7.7z"/><path fill="#fd6818" d="M20.5 20.5h15.4V0L20.5 7.7z"/><path fill="#fe6718" d="M0 24.3 20.5 41V7.7z"/><path fill="#ff8d05" d="M41 24.3 20.5 41V7.7z"/><defs><path id="a" d="M41 24.3 20.5 41V7.7z"/></defs><clipPath id="b"><use xlink:href="#a" overflow="visible"/></clipPath><path fill="#fac802" d="M41 20.5 20.5 33.9V41L41 24.3z" clip-path="url(#b)"/><defs><path id="c" d="M0 24.3 20.5 41V7.7z"/></defs><clipPath id="d"><use xlink:href="#c" overflow="visible"/></clipPath><path fill="#fd9307" d="m0 20.5 20.5 13.4V41L0 24.3z" clip-path="url(#d)"/><path d="M54.6 14.6h-6.2v5.5h5.7v1.7h-5.7v7h-1.9V12.9h8.1v1.7zm3.5-.1c-.3 0-.6-.1-.8-.3s-.3-.5-.3-.8.1-.6.3-.8.5-.3.8-.3.6.1.8.3.3.5.3.8-.1.6-.3.8-.4.3-.8.3zm.9 11.1c0 1 .4 1.6 1.2 1.6.3 0 .6 0 .9-.1v1.6c-.1 0-.3.1-.6.1h-.7c-.4 0-.7-.1-1-.2s-.6-.3-.8-.5-.4-.5-.6-.9c-.1-.4-.2-.8-.2-1.3v-8.5H59v8.2zm13.5 3.2h-1.8v-6.5c0-2.4-.9-3.6-2.6-3.6-.9 0-1.7.3-2.3 1-.6.7-.9 1.5-.9 2.6v6.5h-1.8V17.4h1.8v1.9c.9-1.4 2.1-2.1 3.7-2.1 1.2 0 2.2.4 2.8 1.2s1 2 1 3.5v6.9h.1zm3.7 0V12.9h4.4c5.6 0 8.4 2.6 8.4 7.7 0 2.5-.8 4.4-2.3 5.9-1.6 1.5-3.6 2.2-6.2 2.2h-4.3v.1zM78 14.6v12.5h2.4c2.1 0 3.7-.6 4.9-1.7s1.7-2.7 1.7-4.7c0-4.1-2.2-6.1-6.5-6.1H78zm21.9 14.2h-1.8V27c-.8 1.4-2 2-3.5 2a4 4 0 0 1-2.7-.9c-.6-.6-1-1.4-1-2.4 0-2.1 1.2-3.4 3.7-3.7l3.4-.5c0-1.9-.8-2.9-2.3-2.9-1.4 0-2.6.5-3.7 1.4v-1.9c1.1-.7 2.4-1.1 3.9-1.1 2.7 0 4 1.4 4 4.2v7.6zM98.1 23l-2.7.4c-.8.1-1.5.3-1.9.6-.4.3-.6.8-.6 1.6 0 .6.2 1 .6 1.4s.9.5 1.6.5c.9 0 1.6-.3 2.2-.9s.9-1.4.9-2.4l-.1-1.2zm4.6 5.4v-1.9c1 .7 2.1 1.1 3.3 1.1 1.6 0 2.4-.5 2.4-1.6 0-.3-.1-.6-.2-.8-.1-.2-.3-.4-.6-.6-.2-.2-.5-.3-.8-.4s-.7-.3-1-.4c-.5-.2-.9-.4-1.3-.6s-.7-.4-1-.7c-.3-.3-.4-.5-.6-.9-.1-.3-.2-.7-.2-1.1 0-.5.1-1 .4-1.4.2-.4.6-.8 1-1s.9-.5 1.4-.6 1.1-.2 1.6-.2c1 0 1.9.2 2.6.5v1.8c-.8-.5-1.8-.8-2.9-.8-.3 0-.6 0-.9.1s-.5.2-.7.3c-.2.1-.3.3-.5.5-.1.2-.2.4-.2.6 0 .3.1.5.2.7s.3.4.5.5c.2.2.5.3.8.4s.6.3 1 .4c.5.2 1 .4 1.4.6s.7.4 1 .7.5.5.6.9.2.7.2 1.2c0 .6-.1 1-.4 1.5-.2.4-.6.8-1 1-.4.3-.9.5-1.4.6s-1.1.2-1.7.2c-1.1 0-2.2-.2-3-.6zm19.7.4h-1.8v-6.5c0-2.4-.9-3.5-2.6-3.5-.9 0-1.6.3-2.2 1s-.9 1.6-.9 2.6v6.4H113V12h1.8v7.3c.9-1.4 2.1-2.1 3.7-2.1 2.6 0 3.8 1.5 3.8 4.6l.1 7z"/></svg>